<mxfile host="app.diagrams.net" modified="2023-07-31T17:26:17.879Z" agent="Mozilla/5.0 (Windows NT 10.0; Win64; x64) AppleWebKit/537.36 (KHTML, like Gecko) Chrome/115.0.0.0 Safari/537.36" etag="-hCoXiuK15kZNaf4KyBX" version="21.6.6" type="device">
  <diagram name="Page-1" id="ESkb6XAYt6TVfCxDi9Wk">
    <mxGraphModel dx="1434" dy="750" grid="1" gridSize="10" guides="1" tooltips="1" connect="1" arrows="1" fold="1" page="1" pageScale="1" pageWidth="827" pageHeight="1169" math="0" shadow="0">
      <root>
        <mxCell id="0" />
        <mxCell id="1" parent="0" />
        <mxCell id="guPIONRjP61FRnDDWpIa-23" style="edgeStyle=orthogonalEdgeStyle;rounded=0;orthogonalLoop=1;jettySize=auto;html=1;exitX=0.75;exitY=1;exitDx=0;exitDy=0;entryX=0;entryY=0.5;entryDx=0;entryDy=0;" edge="1" parent="1" source="guPIONRjP61FRnDDWpIa-2" target="guPIONRjP61FRnDDWpIa-22">
          <mxGeometry relative="1" as="geometry" />
        </mxCell>
        <mxCell id="guPIONRjP61FRnDDWpIa-24" style="edgeStyle=orthogonalEdgeStyle;rounded=0;orthogonalLoop=1;jettySize=auto;html=1;exitX=1;exitY=0.5;exitDx=0;exitDy=0;entryX=0.5;entryY=1;entryDx=0;entryDy=0;" edge="1" parent="1" source="guPIONRjP61FRnDDWpIa-2" target="guPIONRjP61FRnDDWpIa-21">
          <mxGeometry relative="1" as="geometry" />
        </mxCell>
        <mxCell id="guPIONRjP61FRnDDWpIa-34" style="edgeStyle=orthogonalEdgeStyle;rounded=0;orthogonalLoop=1;jettySize=auto;html=1;exitX=0;exitY=0.5;exitDx=0;exitDy=0;entryX=1;entryY=0.5;entryDx=0;entryDy=0;" edge="1" parent="1" source="guPIONRjP61FRnDDWpIa-2" target="guPIONRjP61FRnDDWpIa-29">
          <mxGeometry relative="1" as="geometry">
            <mxPoint x="500" y="180" as="targetPoint" />
          </mxGeometry>
        </mxCell>
        <mxCell id="guPIONRjP61FRnDDWpIa-44" style="edgeStyle=orthogonalEdgeStyle;rounded=0;orthogonalLoop=1;jettySize=auto;html=1;exitX=0;exitY=1;exitDx=0;exitDy=0;entryX=1;entryY=0.5;entryDx=0;entryDy=0;" edge="1" parent="1" source="guPIONRjP61FRnDDWpIa-2" target="guPIONRjP61FRnDDWpIa-31">
          <mxGeometry relative="1" as="geometry" />
        </mxCell>
        <mxCell id="guPIONRjP61FRnDDWpIa-2" value="DEPARTMENT" style="rounded=0;whiteSpace=wrap;html=1;" vertex="1" parent="1">
          <mxGeometry x="600" y="160" width="110" height="40" as="geometry" />
        </mxCell>
        <mxCell id="guPIONRjP61FRnDDWpIa-4" value="" style="endArrow=classic;html=1;rounded=0;" edge="1" parent="1">
          <mxGeometry width="50" height="50" relative="1" as="geometry">
            <mxPoint x="650" y="200" as="sourcePoint" />
            <mxPoint x="650" y="280" as="targetPoint" />
          </mxGeometry>
        </mxCell>
        <mxCell id="guPIONRjP61FRnDDWpIa-16" style="edgeStyle=orthogonalEdgeStyle;rounded=0;orthogonalLoop=1;jettySize=auto;html=1;exitX=0.5;exitY=1;exitDx=0;exitDy=0;entryX=0.455;entryY=-0.15;entryDx=0;entryDy=0;entryPerimeter=0;" edge="1" parent="1" source="guPIONRjP61FRnDDWpIa-5" target="guPIONRjP61FRnDDWpIa-6">
          <mxGeometry relative="1" as="geometry" />
        </mxCell>
        <mxCell id="guPIONRjP61FRnDDWpIa-5" value="CONTROL" style="rhombus;whiteSpace=wrap;html=1;" vertex="1" parent="1">
          <mxGeometry x="610" y="280" width="80" height="80" as="geometry" />
        </mxCell>
        <mxCell id="guPIONRjP61FRnDDWpIa-6" value="PROJECT" style="rounded=0;whiteSpace=wrap;html=1;" vertex="1" parent="1">
          <mxGeometry x="600" y="420" width="110" height="40" as="geometry" />
        </mxCell>
        <mxCell id="guPIONRjP61FRnDDWpIa-7" value="Location" style="ellipse;whiteSpace=wrap;html=1;" vertex="1" parent="1">
          <mxGeometry x="605" y="530" width="100" height="40" as="geometry" />
        </mxCell>
        <mxCell id="guPIONRjP61FRnDDWpIa-8" value="P-no" style="ellipse;whiteSpace=wrap;html=1;" vertex="1" parent="1">
          <mxGeometry x="470" y="490" width="110" height="50" as="geometry" />
        </mxCell>
        <mxCell id="guPIONRjP61FRnDDWpIa-9" value="P-name" style="ellipse;whiteSpace=wrap;html=1;" vertex="1" parent="1">
          <mxGeometry x="450" y="420" width="100" height="50" as="geometry" />
        </mxCell>
        <mxCell id="guPIONRjP61FRnDDWpIa-10" value="" style="endArrow=classic;html=1;rounded=0;" edge="1" parent="1" source="guPIONRjP61FRnDDWpIa-6">
          <mxGeometry width="50" height="50" relative="1" as="geometry">
            <mxPoint x="529.2893218813452" y="490" as="sourcePoint" />
            <mxPoint x="550" y="440" as="targetPoint" />
          </mxGeometry>
        </mxCell>
        <mxCell id="guPIONRjP61FRnDDWpIa-21" value="D-name" style="ellipse;whiteSpace=wrap;html=1;" vertex="1" parent="1">
          <mxGeometry x="700" y="80" width="100" height="50" as="geometry" />
        </mxCell>
        <mxCell id="guPIONRjP61FRnDDWpIa-22" value="D-no" style="ellipse;whiteSpace=wrap;html=1;" vertex="1" parent="1">
          <mxGeometry x="710" y="210" width="100" height="50" as="geometry" />
        </mxCell>
        <mxCell id="guPIONRjP61FRnDDWpIa-27" value="" style="endArrow=none;html=1;rounded=0;exitX=0.5;exitY=0;exitDx=0;exitDy=0;entryX=0.5;entryY=1;entryDx=0;entryDy=0;" edge="1" parent="1" source="guPIONRjP61FRnDDWpIa-7" target="guPIONRjP61FRnDDWpIa-6">
          <mxGeometry width="50" height="50" relative="1" as="geometry">
            <mxPoint x="620" y="510" as="sourcePoint" />
            <mxPoint x="670" y="460" as="targetPoint" />
          </mxGeometry>
        </mxCell>
        <mxCell id="guPIONRjP61FRnDDWpIa-28" value="" style="endArrow=none;html=1;rounded=0;exitX=1;exitY=0.5;exitDx=0;exitDy=0;" edge="1" parent="1" source="guPIONRjP61FRnDDWpIa-8">
          <mxGeometry width="50" height="50" relative="1" as="geometry">
            <mxPoint x="600" y="520" as="sourcePoint" />
            <mxPoint x="600" y="460" as="targetPoint" />
            <Array as="points">
              <mxPoint x="600" y="515" />
            </Array>
          </mxGeometry>
        </mxCell>
        <mxCell id="guPIONRjP61FRnDDWpIa-47" style="edgeStyle=orthogonalEdgeStyle;rounded=0;orthogonalLoop=1;jettySize=auto;html=1;exitX=0;exitY=0.5;exitDx=0;exitDy=0;" edge="1" parent="1" source="guPIONRjP61FRnDDWpIa-29">
          <mxGeometry relative="1" as="geometry">
            <mxPoint x="320" y="180" as="targetPoint" />
          </mxGeometry>
        </mxCell>
        <mxCell id="guPIONRjP61FRnDDWpIa-29" value="managed by" style="rhombus;whiteSpace=wrap;html=1;" vertex="1" parent="1">
          <mxGeometry x="400" y="140" width="80" height="80" as="geometry" />
        </mxCell>
        <mxCell id="guPIONRjP61FRnDDWpIa-30" value="M-start-date" style="ellipse;whiteSpace=wrap;html=1;" vertex="1" parent="1">
          <mxGeometry x="397.5" y="60" width="105" height="50" as="geometry" />
        </mxCell>
        <mxCell id="guPIONRjP61FRnDDWpIa-46" style="edgeStyle=orthogonalEdgeStyle;rounded=0;orthogonalLoop=1;jettySize=auto;html=1;entryX=0.892;entryY=1.04;entryDx=0;entryDy=0;entryPerimeter=0;" edge="1" parent="1" source="guPIONRjP61FRnDDWpIa-31" target="guPIONRjP61FRnDDWpIa-35">
          <mxGeometry relative="1" as="geometry" />
        </mxCell>
        <mxCell id="guPIONRjP61FRnDDWpIa-31" value="works" style="rhombus;whiteSpace=wrap;html=1;" vertex="1" parent="1">
          <mxGeometry x="410" y="270" width="80" height="80" as="geometry" />
        </mxCell>
        <mxCell id="guPIONRjP61FRnDDWpIa-32" value="has" style="rhombus;whiteSpace=wrap;html=1;" vertex="1" parent="1">
          <mxGeometry x="195" y="270" width="80" height="80" as="geometry" />
        </mxCell>
        <mxCell id="guPIONRjP61FRnDDWpIa-33" value="has" style="rhombus;whiteSpace=wrap;html=1;" vertex="1" parent="1">
          <mxGeometry x="200" y="275" width="70" height="70" as="geometry" />
        </mxCell>
        <mxCell id="guPIONRjP61FRnDDWpIa-39" style="edgeStyle=orthogonalEdgeStyle;rounded=0;orthogonalLoop=1;jettySize=auto;html=1;entryX=1;entryY=0.5;entryDx=0;entryDy=0;" edge="1" parent="1" source="guPIONRjP61FRnDDWpIa-35" target="guPIONRjP61FRnDDWpIa-37">
          <mxGeometry relative="1" as="geometry" />
        </mxCell>
        <mxCell id="guPIONRjP61FRnDDWpIa-40" style="edgeStyle=orthogonalEdgeStyle;rounded=0;orthogonalLoop=1;jettySize=auto;html=1;exitX=0;exitY=0.75;exitDx=0;exitDy=0;entryX=0.5;entryY=0;entryDx=0;entryDy=0;" edge="1" parent="1" source="guPIONRjP61FRnDDWpIa-35" target="guPIONRjP61FRnDDWpIa-38">
          <mxGeometry relative="1" as="geometry" />
        </mxCell>
        <mxCell id="guPIONRjP61FRnDDWpIa-41" style="edgeStyle=orthogonalEdgeStyle;rounded=0;orthogonalLoop=1;jettySize=auto;html=1;exitX=0.75;exitY=1;exitDx=0;exitDy=0;entryX=0.5;entryY=0;entryDx=0;entryDy=0;" edge="1" parent="1" source="guPIONRjP61FRnDDWpIa-35" target="guPIONRjP61FRnDDWpIa-32">
          <mxGeometry relative="1" as="geometry" />
        </mxCell>
        <mxCell id="guPIONRjP61FRnDDWpIa-35" value="EMPLOYEE" style="rounded=0;whiteSpace=wrap;html=1;" vertex="1" parent="1">
          <mxGeometry x="190" y="150" width="120" height="50" as="geometry" />
        </mxCell>
        <mxCell id="guPIONRjP61FRnDDWpIa-37" value="D-name" style="ellipse;whiteSpace=wrap;html=1;" vertex="1" parent="1">
          <mxGeometry x="60" y="100" width="90" height="50" as="geometry" />
        </mxCell>
        <mxCell id="guPIONRjP61FRnDDWpIa-38" value="D-no" style="ellipse;whiteSpace=wrap;html=1;" vertex="1" parent="1">
          <mxGeometry x="50" y="210" width="90" height="55" as="geometry" />
        </mxCell>
        <mxCell id="guPIONRjP61FRnDDWpIa-42" value="" style="endArrow=none;html=1;rounded=0;exitX=0.5;exitY=0;exitDx=0;exitDy=0;" edge="1" parent="1" source="guPIONRjP61FRnDDWpIa-29" target="guPIONRjP61FRnDDWpIa-30">
          <mxGeometry width="50" height="50" relative="1" as="geometry">
            <mxPoint x="440" y="150" as="sourcePoint" />
            <mxPoint x="490" y="100" as="targetPoint" />
          </mxGeometry>
        </mxCell>
        <mxCell id="guPIONRjP61FRnDDWpIa-65" style="edgeStyle=orthogonalEdgeStyle;rounded=0;orthogonalLoop=1;jettySize=auto;html=1;exitX=0.5;exitY=1;exitDx=0;exitDy=0;entryX=0.5;entryY=0;entryDx=0;entryDy=0;" edge="1" parent="1" source="guPIONRjP61FRnDDWpIa-53" target="guPIONRjP61FRnDDWpIa-56">
          <mxGeometry relative="1" as="geometry" />
        </mxCell>
        <mxCell id="guPIONRjP61FRnDDWpIa-66" style="edgeStyle=orthogonalEdgeStyle;rounded=0;orthogonalLoop=1;jettySize=auto;html=1;exitX=1;exitY=0.5;exitDx=0;exitDy=0;" edge="1" parent="1" source="guPIONRjP61FRnDDWpIa-53">
          <mxGeometry relative="1" as="geometry">
            <mxPoint x="300" y="520" as="targetPoint" />
          </mxGeometry>
        </mxCell>
        <mxCell id="guPIONRjP61FRnDDWpIa-67" style="edgeStyle=orthogonalEdgeStyle;rounded=0;orthogonalLoop=1;jettySize=auto;html=1;exitX=0;exitY=0;exitDx=0;exitDy=0;" edge="1" parent="1" source="guPIONRjP61FRnDDWpIa-53" target="guPIONRjP61FRnDDWpIa-54">
          <mxGeometry relative="1" as="geometry" />
        </mxCell>
        <mxCell id="guPIONRjP61FRnDDWpIa-68" style="edgeStyle=orthogonalEdgeStyle;rounded=0;orthogonalLoop=1;jettySize=auto;html=1;exitX=0;exitY=0.5;exitDx=0;exitDy=0;entryX=1;entryY=0.267;entryDx=0;entryDy=0;entryPerimeter=0;" edge="1" parent="1" source="guPIONRjP61FRnDDWpIa-53" target="guPIONRjP61FRnDDWpIa-57">
          <mxGeometry relative="1" as="geometry" />
        </mxCell>
        <mxCell id="guPIONRjP61FRnDDWpIa-53" value="DEPENDEDNT" style="shape=ext;margin=3;double=1;whiteSpace=wrap;html=1;align=center;" vertex="1" parent="1">
          <mxGeometry x="160" y="440" width="100" height="40" as="geometry" />
        </mxCell>
        <mxCell id="guPIONRjP61FRnDDWpIa-54" value="DOB" style="ellipse;whiteSpace=wrap;html=1;" vertex="1" parent="1">
          <mxGeometry x="35" y="390" width="85" height="50" as="geometry" />
        </mxCell>
        <mxCell id="guPIONRjP61FRnDDWpIa-55" value="RTE" style="ellipse;whiteSpace=wrap;html=1;" vertex="1" parent="1">
          <mxGeometry x="260" y="527.5" width="80" height="50" as="geometry" />
        </mxCell>
        <mxCell id="guPIONRjP61FRnDDWpIa-56" value="SEX" style="ellipse;whiteSpace=wrap;html=1;" vertex="1" parent="1">
          <mxGeometry x="170" y="540" width="80" height="55" as="geometry" />
        </mxCell>
        <mxCell id="guPIONRjP61FRnDDWpIa-57" value="Name" style="ellipse;whiteSpace=wrap;html=1;" vertex="1" parent="1">
          <mxGeometry x="30" y="485" width="90" height="60" as="geometry" />
        </mxCell>
        <mxCell id="guPIONRjP61FRnDDWpIa-63" value="" style="endArrow=none;html=1;rounded=0;" edge="1" parent="1">
          <mxGeometry width="50" height="50" relative="1" as="geometry">
            <mxPoint x="237" y="440" as="sourcePoint" />
            <mxPoint x="237" y="350" as="targetPoint" />
          </mxGeometry>
        </mxCell>
        <mxCell id="guPIONRjP61FRnDDWpIa-64" value="" style="endArrow=none;html=1;rounded=0;exitX=0.55;exitY=0;exitDx=0;exitDy=0;exitPerimeter=0;" edge="1" parent="1" source="guPIONRjP61FRnDDWpIa-53">
          <mxGeometry width="50" height="50" relative="1" as="geometry">
            <mxPoint x="230" y="430" as="sourcePoint" />
            <mxPoint x="230" y="350" as="targetPoint" />
          </mxGeometry>
        </mxCell>
      </root>
    </mxGraphModel>
  </diagram>
</mxfile>
